<mxfile host="65bd71144e">
    <diagram id="xLfKkX5MmBfU5M6gmhwT" name="Page-1">
        <mxGraphModel dx="2039" dy="836" grid="1" gridSize="10" guides="1" tooltips="1" connect="1" arrows="1" fold="1" page="1" pageScale="1" pageWidth="850" pageHeight="1100" math="0" shadow="0">
            <root>
                <mxCell id="0"/>
                <mxCell id="1" parent="0"/>
                <mxCell id="8" value="" style="edgeStyle=none;html=1;fontFamily=Times New Roman;fontSize=22;" parent="1" source="3" target="4" edge="1">
                    <mxGeometry relative="1" as="geometry"/>
                </mxCell>
                <mxCell id="3" value="&lt;font style=&quot;font-size: 32px;&quot; face=&quot;Times New Roman&quot;&gt;Start&lt;/font&gt;" style="rounded=0;whiteSpace=wrap;html=1;fillColor=#0050ef;fontColor=#ffffff;strokeColor=#001DBC;" parent="1" vertex="1">
                    <mxGeometry x="350" y="20" width="180" height="70" as="geometry"/>
                </mxCell>
                <mxCell id="10" value="" style="edgeStyle=none;html=1;fontFamily=Times New Roman;fontSize=22;fillColor=#f5f5f5;strokeColor=#FFFFFF;" parent="1" source="4" target="9" edge="1">
                    <mxGeometry relative="1" as="geometry">
                        <Array as="points">
                            <mxPoint x="240" y="80"/>
                        </Array>
                    </mxGeometry>
                </mxCell>
                <mxCell id="23" value="" style="edgeStyle=none;html=1;fontFamily=Times New Roman;fontSize=22;fillColor=#f5f5f5;strokeColor=#FFFFFF;" parent="1" source="4" target="22" edge="1">
                    <mxGeometry relative="1" as="geometry">
                        <Array as="points">
                            <mxPoint x="320" y="170"/>
                        </Array>
                    </mxGeometry>
                </mxCell>
                <mxCell id="45" value="" style="edgeStyle=none;html=1;fontFamily=Times New Roman;fontSize=22;" parent="1" source="4" target="44" edge="1">
                    <mxGeometry relative="1" as="geometry"/>
                </mxCell>
                <mxCell id="491" value="" style="edgeStyle=none;html=1;fontFamily=Times New Roman;fontSize=22;strokeColor=#FFFFFF;fillColor=#f5f5f5;" parent="1" source="4" target="490" edge="1">
                    <mxGeometry relative="1" as="geometry">
                        <Array as="points">
                            <mxPoint x="600" y="170"/>
                        </Array>
                    </mxGeometry>
                </mxCell>
                <mxCell id="492" value="" style="edgeStyle=none;html=1;fontFamily=Times New Roman;fontSize=22;" parent="1" source="4" target="44" edge="1">
                    <mxGeometry relative="1" as="geometry"/>
                </mxCell>
                <mxCell id="493" value="" style="edgeStyle=none;html=1;fontFamily=Times New Roman;fontSize=22;fillColor=#f5f5f5;strokeColor=#FFFFFF;" parent="1" source="4" target="44" edge="1">
                    <mxGeometry relative="1" as="geometry"/>
                </mxCell>
                <mxCell id="495" value="" style="edgeStyle=none;html=1;fontFamily=Times New Roman;fontSize=22;fillColor=#f5f5f5;strokeColor=#FFFFFF;" parent="1" source="4" target="494" edge="1">
                    <mxGeometry relative="1" as="geometry"/>
                </mxCell>
                <mxCell id="516" value="" style="edgeStyle=none;html=1;fontFamily=Times New Roman;fontSize=22;strokeColor=#FFFFFF;fillColor=#f5f5f5;" parent="1" source="4" target="515" edge="1">
                    <mxGeometry relative="1" as="geometry">
                        <Array as="points">
                            <mxPoint x="640" y="80"/>
                        </Array>
                    </mxGeometry>
                </mxCell>
                <mxCell id="4" value="&lt;font color=&quot;#ffffff&quot;&gt;Input&lt;br&gt;Menu&lt;/font&gt;" style="rhombus;whiteSpace=wrap;html=1;fontFamily=Times New Roman;fontSize=22;fillColor=#e3c800;fontColor=#000000;strokeColor=#B09500;" parent="1" vertex="1">
                    <mxGeometry x="370" y="140" width="140" height="130" as="geometry"/>
                </mxCell>
                <mxCell id="14" value="" style="edgeStyle=none;html=1;fontFamily=Times New Roman;fontSize=22;strokeColor=#FFFFFF;fillColor=#f5f5f5;" parent="1" source="9" target="13" edge="1">
                    <mxGeometry relative="1" as="geometry"/>
                </mxCell>
                <mxCell id="9" value="(T) ambah Data" style="whiteSpace=wrap;html=1;fontSize=22;fontFamily=Times New Roman;fillColor=#1ba1e2;fontColor=#ffffff;strokeColor=#006EAF;" parent="1" vertex="1">
                    <mxGeometry x="-290" y="150" width="120" height="60" as="geometry"/>
                </mxCell>
                <mxCell id="16" value="" style="edgeStyle=none;html=1;fontFamily=Times New Roman;fontSize=22;strokeColor=#FFFFFF;fillColor=#f5f5f5;" parent="1" source="13" target="15" edge="1">
                    <mxGeometry relative="1" as="geometry"/>
                </mxCell>
                <mxCell id="13" value="Input Data" style="rounded=1;whiteSpace=wrap;html=1;fontSize=22;fontFamily=Times New Roman;fillColor=#d80073;fontColor=#ffffff;strokeColor=#A50040;" parent="1" vertex="1">
                    <mxGeometry x="-290" y="270" width="120" height="60" as="geometry"/>
                </mxCell>
                <mxCell id="18" value="" style="edgeStyle=none;html=1;fontFamily=Times New Roman;fontSize=22;strokeColor=#FFFFFF;fillColor=#f5f5f5;" parent="1" source="15" target="17" edge="1">
                    <mxGeometry relative="1" as="geometry"/>
                </mxCell>
                <mxCell id="15" value="Calculate Akhir" style="rounded=1;whiteSpace=wrap;html=1;fontSize=22;fontFamily=Times New Roman;fillColor=#a20025;fontColor=#ffffff;strokeColor=#6F0000;" parent="1" vertex="1">
                    <mxGeometry x="-290" y="410" width="120" height="60" as="geometry"/>
                </mxCell>
                <mxCell id="17" value="Store data in Dictionary" style="rounded=1;whiteSpace=wrap;html=1;fontSize=22;fontFamily=Times New Roman;fillColor=#d80073;fontColor=#ffffff;strokeColor=#A50040;" parent="1" vertex="1">
                    <mxGeometry x="-305" y="530" width="150" height="90" as="geometry"/>
                </mxCell>
                <mxCell id="27" value="" style="edgeStyle=none;html=1;fontFamily=Times New Roman;fontSize=22;strokeColor=#FFFFFF;" parent="1" source="22" target="26" edge="1">
                    <mxGeometry relative="1" as="geometry"/>
                </mxCell>
                <mxCell id="22" value="(U) bah Data" style="whiteSpace=wrap;html=1;fontSize=22;fontFamily=Times New Roman;fillColor=#1ba1e2;fontColor=#ffffff;strokeColor=#006EAF;" parent="1" vertex="1">
                    <mxGeometry x="-60" y="180" width="120" height="60" as="geometry"/>
                </mxCell>
                <mxCell id="29" value="" style="edgeStyle=none;html=1;fontFamily=Times New Roman;fontSize=22;strokeColor=#FFFFFF;" parent="1" source="26" target="28" edge="1">
                    <mxGeometry relative="1" as="geometry"/>
                </mxCell>
                <mxCell id="26" value="Input Nama" style="rounded=1;whiteSpace=wrap;html=1;fontSize=22;fontFamily=Times New Roman;fillColor=#a20025;fontColor=#ffffff;strokeColor=#6F0000;" parent="1" vertex="1">
                    <mxGeometry x="-60" y="300" width="120" height="60" as="geometry"/>
                </mxCell>
                <mxCell id="31" value="" style="edgeStyle=none;html=1;fontFamily=Times New Roman;fontSize=22;" parent="1" source="28" target="30" edge="1">
                    <mxGeometry relative="1" as="geometry"/>
                </mxCell>
                <mxCell id="32" value="" style="edgeStyle=none;html=1;fontFamily=Times New Roman;fontSize=22;" parent="1" source="28" target="30" edge="1">
                    <mxGeometry relative="1" as="geometry"/>
                </mxCell>
                <mxCell id="33" value="" style="edgeStyle=none;html=1;fontFamily=Times New Roman;fontSize=22;" parent="1" source="28" target="30" edge="1">
                    <mxGeometry relative="1" as="geometry"/>
                </mxCell>
                <mxCell id="34" value="" style="edgeStyle=none;html=1;fontFamily=Times New Roman;fontSize=22;strokeColor=#FFFFFF;" parent="1" source="28" target="30" edge="1">
                    <mxGeometry relative="1" as="geometry"/>
                </mxCell>
                <mxCell id="36" value="" style="edgeStyle=none;html=1;fontFamily=Times New Roman;fontSize=22;fillColor=#f5f5f5;strokeColor=#FFFFFF;" parent="1" source="28" target="35" edge="1">
                    <mxGeometry relative="1" as="geometry"/>
                </mxCell>
                <mxCell id="28" value="Nama Exists&lt;br&gt;/&lt;br&gt;Not Found" style="shape=parallelogram;perimeter=parallelogramPerimeter;whiteSpace=wrap;html=1;fixedSize=1;fontSize=22;fontFamily=Times New Roman;rounded=1;size=-10;fillColor=#d80073;fontColor=#ffffff;strokeColor=#A50040;" parent="1" vertex="1">
                    <mxGeometry x="-85" y="420" width="170" height="80" as="geometry"/>
                </mxCell>
                <mxCell id="39" value="" style="edgeStyle=none;html=1;fontFamily=Times New Roman;fontSize=22;strokeColor=#FFFFFF;fillColor=#f5f5f5;" parent="1" source="30" target="38" edge="1">
                    <mxGeometry relative="1" as="geometry"/>
                </mxCell>
                <mxCell id="30" value="Input Data" style="rounded=1;whiteSpace=wrap;html=1;fontSize=22;fontFamily=Times New Roman;fillColor=#a20025;fontColor=#ffffff;strokeColor=#6F0000;" parent="1" vertex="1">
                    <mxGeometry x="-60" y="540" width="120" height="60" as="geometry"/>
                </mxCell>
                <mxCell id="35" value="Display Error" style="rounded=1;whiteSpace=wrap;html=1;fontSize=22;fontFamily=Times New Roman;fillColor=#a0522d;fontColor=#ffffff;strokeColor=#6D1F00;" parent="1" vertex="1">
                    <mxGeometry x="110" y="460" width="130" height="50" as="geometry"/>
                </mxCell>
                <mxCell id="41" value="" style="edgeStyle=none;html=1;fontFamily=Times New Roman;fontSize=22;strokeColor=#FFFFFF;fillColor=#f5f5f5;" parent="1" source="38" target="40" edge="1">
                    <mxGeometry relative="1" as="geometry"/>
                </mxCell>
                <mxCell id="38" value="Calculate akhir" style="rounded=1;whiteSpace=wrap;html=1;fontSize=22;fontFamily=Times New Roman;fillColor=#d80073;fontColor=#ffffff;strokeColor=#A50040;" parent="1" vertex="1">
                    <mxGeometry x="-60" y="660" width="120" height="60" as="geometry"/>
                </mxCell>
                <mxCell id="40" value="Update data in Dictionary" style="rounded=1;whiteSpace=wrap;html=1;fontSize=22;fontFamily=Times New Roman;fillColor=#a20025;fontColor=#ffffff;strokeColor=#6F0000;" parent="1" vertex="1">
                    <mxGeometry x="-77.5" y="760" width="155" height="90" as="geometry"/>
                </mxCell>
                <mxCell id="47" value="" style="edgeStyle=none;html=1;fontFamily=Times New Roman;fontSize=22;fillColor=#f5f5f5;strokeColor=#FFFFFF;" parent="1" source="44" target="46" edge="1">
                    <mxGeometry relative="1" as="geometry"/>
                </mxCell>
                <mxCell id="44" value="(H) apus Data" style="whiteSpace=wrap;html=1;fontSize=22;fontFamily=Times New Roman;fillColor=#1ba1e2;fontColor=#ffffff;strokeColor=#006EAF;" parent="1" vertex="1">
                    <mxGeometry x="200" y="280" width="120" height="60" as="geometry"/>
                </mxCell>
                <mxCell id="484" value="" style="edgeStyle=none;html=1;fontFamily=Times New Roman;fontSize=22;strokeColor=#FFFFFF;fillColor=#f5f5f5;" parent="1" source="46" target="483" edge="1">
                    <mxGeometry relative="1" as="geometry"/>
                </mxCell>
                <mxCell id="46" value="Input Nama" style="rounded=1;whiteSpace=wrap;html=1;fontSize=22;fontFamily=Times New Roman;fillColor=#0050ef;fontColor=#ffffff;strokeColor=#001DBC;arcSize=26;" parent="1" vertex="1">
                    <mxGeometry x="260" y="400" width="120" height="60" as="geometry"/>
                </mxCell>
                <mxCell id="487" value="" style="edgeStyle=none;html=1;fontFamily=Times New Roman;fontSize=22;fillColor=#f5f5f5;strokeColor=#FFFFFF;" parent="1" source="483" target="486" edge="1">
                    <mxGeometry relative="1" as="geometry"/>
                </mxCell>
                <mxCell id="489" value="" style="edgeStyle=none;html=1;fontFamily=Times New Roman;fontSize=22;strokeColor=#FFFFFF;" parent="1" source="483" target="488" edge="1">
                    <mxGeometry relative="1" as="geometry"/>
                </mxCell>
                <mxCell id="483" value="Nama Exists&lt;br&gt;/&lt;br&gt;Not Found" style="rounded=1;whiteSpace=wrap;html=1;fontSize=22;fontFamily=Times New Roman;fillColor=#6a00ff;fontColor=#ffffff;strokeColor=#3700CC;" parent="1" vertex="1">
                    <mxGeometry x="252.5" y="540" width="135" height="100" as="geometry"/>
                </mxCell>
                <mxCell id="486" value="Display Error" style="rounded=1;whiteSpace=wrap;html=1;fontSize=22;fontFamily=Times New Roman;fillColor=#a20025;fontColor=#ffffff;strokeColor=#6F0000;" parent="1" vertex="1">
                    <mxGeometry x="120" y="650" width="140" height="40" as="geometry"/>
                </mxCell>
                <mxCell id="488" value="Delete data in Dictionary" style="rounded=1;whiteSpace=wrap;html=1;fontSize=22;fontFamily=Times New Roman;fillColor=#60a917;fontColor=#ffffff;strokeColor=#2D7600;" parent="1" vertex="1">
                    <mxGeometry x="240" y="720" width="170" height="90" as="geometry"/>
                </mxCell>
                <mxCell id="508" value="" style="edgeStyle=none;html=1;fontFamily=Times New Roman;fontSize=22;fillColor=#f5f5f5;strokeColor=#FFFFFF;" parent="1" source="490" target="507" edge="1">
                    <mxGeometry relative="1" as="geometry"/>
                </mxCell>
                <mxCell id="490" value="(L) ihat Data" style="whiteSpace=wrap;html=1;fontSize=22;fontFamily=Times New Roman;fillColor=#1ba1e2;fontColor=#ffffff;strokeColor=#006EAF;" parent="1" vertex="1">
                    <mxGeometry x="820" y="180" width="120" height="60" as="geometry"/>
                </mxCell>
                <mxCell id="497" value="" style="edgeStyle=none;html=1;fontFamily=Times New Roman;fontSize=22;fillColor=#f5f5f5;strokeColor=#FFFFFF;" parent="1" source="494" target="496" edge="1">
                    <mxGeometry relative="1" as="geometry"/>
                </mxCell>
                <mxCell id="494" value="(C) ari Data" style="whiteSpace=wrap;html=1;fontSize=22;fontFamily=Times New Roman;fillColor=#1ba1e2;fontColor=#ffffff;strokeColor=#006EAF;" parent="1" vertex="1">
                    <mxGeometry x="520" y="280" width="120" height="60" as="geometry"/>
                </mxCell>
                <mxCell id="499" value="" style="edgeStyle=none;html=1;fontFamily=Times New Roman;fontSize=22;fillColor=#f5f5f5;strokeColor=#FFFFFF;" parent="1" source="496" target="498" edge="1">
                    <mxGeometry relative="1" as="geometry"/>
                </mxCell>
                <mxCell id="496" value="Input Nama" style="rounded=1;whiteSpace=wrap;html=1;fontSize=22;fontFamily=Times New Roman;fillColor=#0050ef;fontColor=#ffffff;strokeColor=#001DBC;" parent="1" vertex="1">
                    <mxGeometry x="450" y="400" width="120" height="60" as="geometry"/>
                </mxCell>
                <mxCell id="502" value="" style="edgeStyle=none;html=1;fontFamily=Times New Roman;fontSize=22;fillColor=#f5f5f5;strokeColor=#FFFFFF;" parent="1" source="498" target="501" edge="1">
                    <mxGeometry relative="1" as="geometry"/>
                </mxCell>
                <mxCell id="504" value="" style="edgeStyle=none;html=1;fontFamily=Times New Roman;fontSize=22;fillColor=#f5f5f5;strokeColor=#FFFFFF;" parent="1" source="498" target="503" edge="1">
                    <mxGeometry relative="1" as="geometry"/>
                </mxCell>
                <mxCell id="498" value="Nama Exists&lt;br&gt;/&lt;br&gt;Not Found" style="whiteSpace=wrap;html=1;fontSize=22;fontFamily=Times New Roman;rounded=1;fillColor=#6a00ff;fontColor=#ffffff;strokeColor=#3700CC;" parent="1" vertex="1">
                    <mxGeometry x="440" y="540" width="140" height="100" as="geometry"/>
                </mxCell>
                <mxCell id="501" value="Display Error" style="rounded=1;whiteSpace=wrap;html=1;fontSize=22;fontFamily=Times New Roman;fillColor=#a20025;fontColor=#ffffff;strokeColor=#6F0000;" parent="1" vertex="1">
                    <mxGeometry x="590" y="650" width="160" height="40" as="geometry"/>
                </mxCell>
                <mxCell id="503" value="Display Data" style="rounded=1;whiteSpace=wrap;html=1;fontSize=22;fontFamily=Times New Roman;fillColor=#60a917;fontColor=#ffffff;strokeColor=#2D7600;" parent="1" vertex="1">
                    <mxGeometry x="430" y="720" width="160" height="60" as="geometry"/>
                </mxCell>
                <mxCell id="510" value="" style="edgeStyle=none;html=1;fontFamily=Times New Roman;fontSize=22;strokeColor=#FFFFFF;" parent="1" source="507" target="509" edge="1">
                    <mxGeometry relative="1" as="geometry"/>
                </mxCell>
                <mxCell id="513" value="" style="edgeStyle=none;html=1;fontFamily=Times New Roman;fontSize=22;strokeColor=#FFFFFF;" parent="1" source="507" target="512" edge="1">
                    <mxGeometry relative="1" as="geometry"/>
                </mxCell>
                <mxCell id="507" value="Dictionary Not Empty&lt;br&gt;/&lt;br&gt;Dictionary Empty" style="shape=parallelogram;perimeter=parallelogramPerimeter;whiteSpace=wrap;html=1;fixedSize=1;fontSize=22;fontFamily=Times New Roman;size=50;fillColor=#1ba1e2;fontColor=#ffffff;strokeColor=#006EAF;" parent="1" vertex="1">
                    <mxGeometry x="715" y="300" width="330" height="140" as="geometry"/>
                </mxCell>
                <mxCell id="509" value="&lt;font color=&quot;#ffffff&quot;&gt;Display Data Table&lt;/font&gt;" style="rounded=1;whiteSpace=wrap;html=1;fontSize=22;fontFamily=Times New Roman;fillColor=#fa6800;fontColor=#000000;strokeColor=#C73500;" parent="1" vertex="1">
                    <mxGeometry x="660" y="490" width="200" height="60" as="geometry"/>
                </mxCell>
                <mxCell id="512" value="&lt;font color=&quot;#ffffff&quot;&gt;Display No Data&lt;/font&gt;" style="rounded=1;whiteSpace=wrap;html=1;fontSize=22;fontFamily=Times New Roman;fillColor=#fa6800;fontColor=#000000;strokeColor=#C73500;" parent="1" vertex="1">
                    <mxGeometry x="910" y="490" width="210" height="60" as="geometry"/>
                </mxCell>
                <mxCell id="518" value="" style="edgeStyle=none;html=1;fontFamily=Times New Roman;fontSize=22;strokeColor=#FFFFFF;" parent="1" source="515" target="517" edge="1">
                    <mxGeometry relative="1" as="geometry"/>
                </mxCell>
                <mxCell id="515" value="Exit" style="whiteSpace=wrap;html=1;fontSize=22;fontFamily=Times New Roman;fillColor=#e51400;fontColor=#ffffff;strokeColor=#B20000;" parent="1" vertex="1">
                    <mxGeometry x="1130" y="200" width="120" height="60" as="geometry"/>
                </mxCell>
                <mxCell id="517" value="End" style="rounded=1;whiteSpace=wrap;html=1;fontSize=22;fontFamily=Times New Roman;fillColor=#e51400;fontColor=#ffffff;strokeColor=#B20000;" parent="1" vertex="1">
                    <mxGeometry x="1130" y="330" width="120" height="60" as="geometry"/>
                </mxCell>
            </root>
        </mxGraphModel>
    </diagram>
</mxfile>